<svg width="30" height="30" viewBox="0 0 30 30" fill="none" xmlns="http://www.w3.org/2000/svg">
<circle cx="15" cy="15" r="14.5" stroke="white"/>
<path d="M15 14L24 8.40863C23.6382 8.14616 23.1988 8.00293 22.7465 8H7.25352C6.80122 8.00293 6.36184 8.14616 6 8.40863L15 14Z" fill="white"/>
<path d="M15.3857 15.2875L15.2643 15.3461H15.2071C15.1414 15.3763 15.0715 15.396 15 15.4047C14.9407 15.4124 14.8807 15.4124 14.8214 15.4047H14.7643L14.6429 15.3461L5.07143 9C5.0257 9.177 5.0017 9.35917 5 9.54228V19.8016C5 20.3846 5.22576 20.9438 5.62763 21.3561C6.02949 21.7684 6.57454 22 7.14286 22H22.8571C23.4255 22 23.9705 21.7684 24.3724 21.3561C24.7742 20.9438 25 20.3846 25 19.8016V9.54228C24.9983 9.35917 24.9743 9.177 24.9286 9L15.3857 15.2875Z" fill="white"/>
</svg>
