<svg width="18" height="20" viewBox="0 0 18 20" fill="none" xmlns="http://www.w3.org/2000/svg">
<path fill-rule="evenodd" clip-rule="evenodd" d="M8.27001 10.89L8.29501 10.915L10.2731 8.93688C9.96063 8.52164 9.79181 8.01595 9.7922 7.49626C9.7922 6.86126 10.0428 6.25313 10.4906 5.80188C10.9407 5.35351 11.5497 5.10122 12.185 5.10001C12.7052 5.10029 13.2111 5.27024 13.6259 5.58407L16.1922 3.01782L14.05 0.872188L6.15282 8.7697L7.22376 9.8422L8.27157 10.8884L8.27001 10.89ZM3.48563 17.2985H0V19.2469H17.6394V17.2985H3.48563ZM14.1031 8.91845C15.3445 10.8835 16.005 13.1595 16.0085 15.4838C16.008 15.8665 15.9891 16.2491 15.9516 16.63H14.6006C14.6375 16.266 14.655 15.9 14.655 15.5338C14.6535 13.4857 14.0657 11.4809 12.9609 9.75626C13.3059 9.63987 13.6192 9.44508 13.8763 9.1872C13.9603 9.10376 14.0375 9.0147 14.1031 8.91845ZM5.12 16.63H4.15407V15.6541H5.12V16.63ZM5.78844 14.9856H7.57969V14.02H1.69438V14.9856H5.78844ZM15.1128 0.989376L16.0988 0L17.0644 0.965939L16.0788 1.955L15.1128 0.989376ZM10.4606 7.49626C10.4606 7.03845 10.6413 6.59719 10.9653 6.27626C11.1253 6.11563 11.3154 5.98811 11.5246 5.90098C11.7339 5.81384 11.9583 5.76881 12.185 5.76844C12.6431 5.76844 13.0809 5.95219 13.405 6.27626C13.5654 6.43628 13.6926 6.62645 13.7792 6.83583C13.8659 7.04522 13.9102 7.26967 13.9097 7.49626C13.9099 7.7228 13.8655 7.94717 13.7789 8.15651C13.6923 8.36586 13.5653 8.55606 13.4051 8.71624C13.2449 8.87641 13.0546 9.00341 12.8453 9.08997C12.6359 9.17652 12.4116 9.22092 12.185 9.22063C11.9585 9.22088 11.7342 9.17645 11.5248 9.08988C11.3155 9.00331 11.1253 8.8763 10.9651 8.71613C10.805 8.55595 10.678 8.36576 10.5914 8.15644C10.5048 7.94712 10.4604 7.72278 10.4606 7.49626ZM7.32594 10.8884L6.82782 11.3897L5.67813 10.24L6.17626 9.7422L7.32594 10.8884Z" fill="#00B7AB"/>
</svg>
