<svg width="16" height="16" viewBox="0 0 30 30" fill="none" xmlns="http://www.w3.org/2000/svg">
<path d="M12.154 6.88393C11.7635 2.38979 7.07782 0.18465 6.87952 0.0946447C6.69414 0.00744908 6.48639 -0.0204098 6.28461 0.014867C0.875227 0.912878 0.0615707 4.06308 0.0288609 4.19399C-0.0156421 4.37643 -0.0085639 4.56766 0.0493045 4.7463C6.50131 24.7766 19.9103 28.4894 24.3179 29.7106C24.6573 29.8047 24.9374 29.8804 25.15 29.9499C25.3926 30.0292 25.6562 30.0139 25.888 29.907C26.0229 29.8456 29.208 28.3441 29.9869 23.447C30.0215 23.2332 29.9871 23.014 29.8888 22.8211C29.8193 22.6861 28.1531 19.5134 23.5329 18.3924C23.3761 18.3523 23.212 18.3509 23.0546 18.3883C22.8972 18.4257 22.7512 18.5008 22.6293 18.6072C21.1716 19.8529 19.158 21.1805 18.2891 21.3176C12.4647 18.4681 9.21213 13.0002 9.08947 11.9631C9.01792 11.3801 10.3529 9.3325 11.8882 7.66739C11.9847 7.5626 12.0582 7.43875 12.104 7.30381C12.1497 7.16888 12.1668 7.02585 12.154 6.88393Z" fill="#00B7AB"/>
</svg>
