<svg width="30" height="30" viewBox="0 0 30 30" fill="none" xmlns="http://www.w3.org/2000/svg">
<circle cx="15" cy="15" r="14.5" stroke="white"/>
<path d="M13.2718 10.0702C13.0347 7.34157 10.1898 6.00273 10.0694 5.94809C9.95688 5.89515 9.83074 5.87823 9.70823 5.89965C6.42397 6.44487 5.92996 8.35749 5.9101 8.43698C5.88308 8.54774 5.88738 8.66385 5.92251 8.77231C9.8398 20.9336 17.981 23.1877 20.657 23.9292C20.8631 23.9863 21.0331 24.0323 21.1622 24.0745C21.3095 24.1227 21.4696 24.1134 21.6103 24.0484C21.6922 24.0112 23.626 23.0996 24.0989 20.1263C24.1199 19.9965 24.099 19.8634 24.0394 19.7463C23.9971 19.6643 22.9856 17.738 20.1804 17.0574C20.0852 17.0331 19.9856 17.0322 19.89 17.0549C19.7945 17.0777 19.7058 17.1233 19.6318 17.1878C18.7468 17.9442 17.5242 18.7502 16.9967 18.8334C13.4604 17.1034 11.4857 13.7836 11.4112 13.1539C11.3677 12.8 12.1783 11.5568 13.1104 10.5458C13.169 10.4822 13.2136 10.407 13.2414 10.3251C13.2692 10.2432 13.2795 10.1563 13.2718 10.0702Z" fill="white"/>
</svg>
