<svg width="19" height="22" viewBox="0 0 19 22" fill="none" xmlns="http://www.w3.org/2000/svg">
<path d="M15.804 1H17.3021C17.3978 1 17.4896 1.03803 17.5573 1.10573C17.625 1.17343 17.663 1.26525 17.663 1.36098V9.11132C17.663 9.82074 17.3812 10.5011 16.8796 11.0028C16.3779 11.5044 15.6976 11.7862 14.9882 11.7862H11.7862C11.0768 11.7862 10.3964 11.5044 9.89479 11.0028C9.39315 10.5011 9.11133 9.82074 9.11133 9.11132V1.36098C9.11133 1.26525 9.14936 1.17343 9.21706 1.10573C9.28476 1.03803 9.37657 1 9.47231 1H10.9704" stroke="#00B7AB" stroke-linecap="round" stroke-linejoin="round"/>
<path d="M2.98535 12.0115V15.7946C2.98535 17.1742 3.53339 18.4973 4.50892 19.4729C5.48444 20.4484 6.80754 20.9964 8.18714 20.9964C9.56674 20.9964 10.8898 20.4484 11.8654 19.4729C12.8409 18.4973 13.3889 17.1742 13.3889 15.7946V13.885M9.11126 8.72656V9.10921C9.11126 9.81863 9.39307 10.499 9.89471 11.0006C10.3964 11.5023 11.0767 11.7841 11.7861 11.7841H14.9881C15.6975 11.7841 16.3779 11.5023 16.8795 11.0006C17.3812 10.499 17.663 9.81863 17.663 9.10921V8.72656H9.11126Z" stroke="#00B7AB" stroke-linecap="round" stroke-linejoin="round"/>
<path d="M2.98541 12.0177C4.08193 12.0177 4.97083 11.1288 4.97083 10.0323C4.97083 8.93578 4.08193 8.04688 2.98541 8.04688C1.8889 8.04688 1 8.93578 1 10.0323C1 11.1288 1.8889 12.0177 2.98541 12.0177Z" stroke="#00B7AB" stroke-linecap="round" stroke-linejoin="round"/>
<path d="M13.389 13.89C13.0607 13.8904 12.7429 13.7747 12.4919 13.5633C12.2408 13.3518 12.0726 13.0584 12.0172 12.7348L11.8584 11.7891H14.9268L14.7463 12.7493C14.6889 13.068 14.5218 13.3566 14.2738 13.565C14.0259 13.7734 13.7128 13.8884 13.389 13.89Z" stroke="#00B7AB" stroke-linecap="round" stroke-linejoin="round"/>
</svg>
